<svg xmlns="http://www.w3.org/2000/svg" xmlns:xlink="http://www.w3.org/1999/xlink" viewBox="0 0 391.33 303.92"><defs><style>.cls-1{fill:#f9f7f4;}.cls-2{fill:#fffaf7;}.cls-3{fill:#eff8fc;}.cls-12,.cls-18,.cls-19,.cls-20,.cls-24,.cls-25,.cls-27,.cls-30,.cls-31,.cls-4{fill:#fff;}.cls-4{opacity:0.6;}.cls-5{opacity:0.02;}.cls-6{opacity:0.03;}.cls-13,.cls-14,.cls-15,.cls-21,.cls-34,.cls-35,.cls-36,.cls-7,.cls-8{fill:none;}.cls-7,.cls-8{stroke:#e8eaed;}.cls-13,.cls-14,.cls-34,.cls-35,.cls-36,.cls-7,.cls-8{stroke-linecap:round;}.cls-13,.cls-14,.cls-15,.cls-34,.cls-35,.cls-36,.cls-7,.cls-8{stroke-linejoin:round;}.cls-13,.cls-15,.cls-7{stroke-width:3px;}.cls-14,.cls-8{stroke-width:1.5px;}.cls-9{fill:#f5ece2;}.cls-10{fill:#f9f6ea;}.cls-11{fill:#ebfdff;}.cls-12{opacity:0.2;}.cls-13,.cls-14,.cls-15{stroke:#ccd4de;}.cls-16{fill:#8a8886;}.cls-17{fill:#82d2e8;}.cls-18{opacity:0.5;}.cls-19{opacity:0.3;}.cls-20,.cls-28{opacity:0.25;}.cls-22{opacity:0.05;}.cls-23{opacity:0.07;}.cls-24{opacity:0.7;}.cls-26{opacity:0.35;}.cls-27{opacity:0.75;}.cls-29{opacity:0.1;}.cls-30{opacity:0.4;}.cls-31{opacity:0;}.cls-32{fill:url(#radial-gradient);}.cls-33{fill:url(#radial-gradient-2);}.cls-34,.cls-35,.cls-36{stroke:#3f5067;}.cls-34{stroke-width:4.02px;}.cls-35{stroke-width:4px;}.cls-36{stroke-width:2px;}</style><radialGradient id="radial-gradient" cx="175.74" cy="136.94" r="70" gradientUnits="userSpaceOnUse"><stop offset="0" stop-color="#fff" stop-opacity="0.6"/><stop offset="1" stop-color="#fff" stop-opacity="0"/></radialGradient><radialGradient id="radial-gradient-2" cx="175.74" cy="236.94" r="35" xlink:href="#radial-gradient"/></defs><title>coffee-machine-bialetti</title><g id="bg"><g id="colors"><polygon class="cls-1" points="385.02 117.19 385.02 133.85 350.8 133.85 350.8 117.19 367.5 117.19 385.02 117.19"/><polygon class="cls-1" points="367.5 100.53 367.5 117.19 350.8 117.19 350.75 117.19 333.27 117.19 333.27 100.53 367.5 100.53"/><polygon class="cls-1" points="350.75 117.19 350.75 133.85 316.52 133.85 316.52 117.19 333.27 117.19 350.75 117.19"/><rect class="cls-1" x="299.44" y="7.86" width="34.22" height="16.66"/><path class="cls-2" d="M511.46,160V384H288.54V160ZM490.93,364.66V179.34H407.31V363.91H392.69V179.34H309.34V364.66H490.93Z" transform="translate(-204.33 -123.51)"/><polygon class="cls-3" points="286.6 55.83 286.6 241.15 188.36 241.15 188.36 240.4 202.98 240.4 202.98 55.83 286.6 55.83"/><polygon class="cls-3" points="188.36 240.4 188.36 241.15 105.01 241.15 105.01 55.83 188.36 55.83 188.36 240.4"/><polygon class="cls-1" points="84.38 7.67 84.38 24.33 66.88 24.33 50.16 24.33 50.16 7.67 84.38 7.67"/><polygon class="cls-1" points="66.88 24.33 66.88 40.99 32.66 40.99 32.66 24.33 50.16 24.33 66.88 24.33"/><polygon class="cls-1" points="65.13 134.17 65.13 150.83 48.38 150.83 30.91 150.83 30.91 134.17 65.13 134.17"/><polygon class="cls-1" points="48.38 150.83 48.38 167.49 14.16 167.49 14.16 150.83 30.91 150.83 48.38 150.83"/></g><g id="shadows"><polygon class="cls-4" points="302.35 40.99 89.03 40.99 84.33 36.23 307.13 36.23 302.35 40.99"/><polygon class="cls-5" points="296.36 260.53 83.04 260.53 78.33 255.78 301.13 255.78 296.36 260.53"/><polygon class="cls-4" points="88.97 41.01 88.97 254.32 84.21 259.03 84.21 36.23 88.97 41.01"/><polygon class="cls-5" points="302.37 254.73 302.37 41.42 307.13 36.71 307.13 259.51 302.37 254.73"/><path class="cls-5" d="M392.07,174.91v4.43H309c0-1.48-4.16-3.22-4.22-4,0-.53,1.9-.4,7.2-.4Z" transform="translate(-204.33 -123.51)"/><path class="cls-4" d="M396.49,179.34h-4.42l3.13-3.13A4.41,4.41,0,0,1,396.49,179.34Z" transform="translate(-204.33 -123.51)"/><path class="cls-6" d="M395.2,176.21l-3.13,3.13v-4.43A4.38,4.38,0,0,1,395.2,176.21Z" transform="translate(-204.33 -123.51)"/><path class="cls-4" d="M396.49,179.34V257.2a4.42,4.42,0,0,1-4.42,4.43V179.34Z" transform="translate(-204.33 -123.51)"/><path class="cls-4" d="M494.66,178a4.51,4.51,0,0,0-1.11-1.79l0,0A4.36,4.36,0,0,1,494.66,178Z" transform="translate(-204.33 -123.51)"/><path class="cls-4" d="M494.86,179.34V306a9.88,9.88,0,0,1-1.29,5.09,3.81,3.81,0,0,1-3.13,2.11V179.34Z" transform="translate(-204.33 -123.51)"/><path class="cls-5" d="M403.33,179.34h4.3v83.17a4.44,4.44,0,0,1-4.43-4.43V179.34a4.44,4.44,0,0,1,4.43-4.43h0A4.42,4.42,0,0,0,403.33,179.34Z" transform="translate(-204.33 -123.51)"/><path class="cls-6" d="M407.63,174.92v4.42h-4.3A4.42,4.42,0,0,1,407.63,174.92Z" transform="translate(-204.33 -123.51)"/><path class="cls-4" d="M494.86,179.34h-4.42l3.11-3.11a4.51,4.51,0,0,1,1.11,1.79A4.44,4.44,0,0,1,494.86,179.34Z" transform="translate(-204.33 -123.51)"/><path class="cls-5" d="M493.55,176.23l-3.11,3.11H407.63v-4.42h82.68a4.59,4.59,0,0,1,3.22,1.3Z" transform="translate(-204.33 -123.51)"/><path class="cls-4" d="M389.85,369.12H305.5c-2.45,0,3.47-2,3.47-4.43h85.31A4.43,4.43,0,0,1,389.85,369.12Z" transform="translate(-204.33 -123.51)"/><path class="cls-4" d="M201.58,241.19h86.5a0,0,0,0,1,0,0v0a4.4,4.4,0,0,1-4.4,4.4H206a4.4,4.4,0,0,1-4.4-4.4v0A0,0,0,0,1,201.58,241.19Z"/><polygon class="cls-4" points="121.67 56.16 104.67 73.16 104.67 96.2 145.61 55.26 121.67 56.16"/><polygon class="cls-4" points="105 124.2 173.12 56.09 177.86 56.09 104.83 129.12 105 124.2"/><polygon class="cls-4" points="104.67 139.16 187.37 56.46 187.37 75.73 104.91 158.19 104.67 139.16"/><polygon class="cls-4" points="105 212.41 189.34 128.08 189.34 165.37 113.33 241.37 105.01 241.15 105 212.41"/><polygon class="cls-4" points="202.48 101.35 247.76 56.06 261.25 56.06 201.67 115.65 202.48 101.35"/><polygon class="cls-4" points="237.56 55.83 203.3 90.09 203.3 86.62 233.45 56.47 237.56 55.83"/><polygon class="cls-4" points="279.04 56.46 202.73 132.77 202.73 161.49 286.69 77.53 286.69 56.46 279.04 56.46"/><polygon class="cls-4" points="286.6 138.4 202.83 222.16 202.83 241.15 212.37 241.15 285.62 167.91 286.6 138.4"/><path class="cls-5" d="M308.5,365.74V178.66h0c-1.93,0-3.5-4.24-3.5-2.26V368C305,370,306.56,365.74,308.5,365.74Z" transform="translate(-204.33 -123.51)"/><path class="cls-4" d="M270,147.84H238.17v2.58H237v13.52h3.93v-9.57a2.54,2.54,0,0,1,2.54-2.54H270Z" transform="translate(-204.33 -123.51)"/><path class="cls-4" d="M287.48,131.17H255.66v2.58h-1.18v13.52h3.93v-9.57a2.54,2.54,0,0,1,2.54-2.54h26.53Z" transform="translate(-204.33 -123.51)"/><path class="cls-4" d="M251.09,273.92H219.28v2.58H218.1V290H222v-9.57a2.54,2.54,0,0,1,2.54-2.54h26.53Z" transform="translate(-204.33 -123.51)"/><path class="cls-4" d="M268.18,257.25H236.37v2.58h-1.18v13.52h3.93v-9.57a2.54,2.54,0,0,1,2.54-2.54h26.53Z" transform="translate(-204.33 -123.51)"/><path class="cls-4" d="M553.85,240.7H522v2.58h-1.18v13.52h3.93v-9.57a2.54,2.54,0,0,1,2.54-2.54h26.53Z" transform="translate(-204.33 -123.51)"/><path class="cls-4" d="M570.6,224H538.78v2.58H537.6v13.52h3.93v-9.57a2.54,2.54,0,0,1,2.54-2.54H570.6Z" transform="translate(-204.33 -123.51)"/><path class="cls-4" d="M536.76,131.37H504.95V134h-1.18v13.52h3.93v-9.57a2.54,2.54,0,0,1,2.54-2.54h26.53Z" transform="translate(-204.33 -123.51)"/><path class="cls-4" d="M588.32,240.7H556.51v2.58h-1.18v13.52h3.93v-9.57a2.54,2.54,0,0,1,2.54-2.54h26.53Z" transform="translate(-204.33 -123.51)"/></g><g id="lines"><rect class="cls-7" x="84.2" y="36.49" width="222.93" height="224"/><rect class="cls-7" x="14.16" y="150.83" width="34.22" height="16.66" rx="4.76" ry="4.76"/><rect class="cls-7" x="30.91" y="134.17" width="34.22" height="16.66" rx="4.76" ry="4.76"/><rect class="cls-7" x="50.16" y="7.66" width="34.22" height="16.66" rx="4.76" ry="4.76"/><rect class="cls-7" x="32.66" y="24.33" width="34.22" height="16.66" rx="4.76" ry="4.76"/><rect class="cls-7" x="316.52" y="117.19" width="34.22" height="16.66" rx="4.76" ry="4.76"/><rect class="cls-7" x="350.79" y="117.19" width="34.22" height="16.66" rx="4.76" ry="4.76"/><rect class="cls-7" x="333.27" y="100.53" width="34.22" height="16.66" rx="4.76" ry="4.76"/><polygon class="cls-7" points="188.36 55.83 188.36 241.15 202.98 241.15 202.98 55.83 286.6 55.83 286.6 241.15 105 241.15 105 55.83 188.36 55.83"/><line class="cls-8" x1="142.89" y1="73.32" x2="127.5" y2="88.71"/><line class="cls-8" x1="137.59" y1="85.36" x2="123.42" y2="99.53"/><line class="cls-8" x1="275.25" y1="100.53" x2="261.08" y2="114.7"/><line class="cls-8" x1="275.93" y1="94.17" x2="271.88" y2="98.22"/><line class="cls-8" x1="105" y1="55.83" x2="100.24" y2="51.4"/><line class="cls-8" x1="97.97" y1="49.33" x2="84.38" y2="36.69"/><line class="cls-8" x1="301.39" y1="41.9" x2="307.13" y2="36.49"/><line class="cls-8" x1="286.6" y1="56.06" x2="295.25" y2="47.91"/><line class="cls-8" x1="105" y1="241.15" x2="94.74" y2="250.82"/><line class="cls-8" x1="297.63" y1="45.35" x2="298.67" y2="44.37"/><line class="cls-7" x1="31.27" y1="167.49" x2="31.27" y2="173.66"/><line class="cls-7" x1="60.37" y1="150.83" x2="68.99" y2="150.83"/><line class="cls-7" x1="30.86" y1="141.88" x2="30.86" y2="130.49"/><line class="cls-7" x1="333.63" y1="133.86" x2="333.63" y2="141.16"/><line class="cls-7" x1="321.28" y1="117.19" x2="313.5" y2="117.19"/><line class="cls-7" x1="350.79" y1="100.53" x2="350.79" y2="94.17"/><rect class="cls-7" x="299.44" y="7.86" width="34.22" height="16.66" rx="4.76" ry="4.76"/><line class="cls-7" x1="316.96" y1="7.86" x2="316.96" y2="1.5"/><line class="cls-7" x1="79.62" y1="24.33" x2="88.97" y2="24.33"/><line class="cls-7" x1="50.16" y1="40.99" x2="50.16" y2="49.33"/><line class="cls-7" x1="304.2" y1="24.52" x2="295.68" y2="24.52"/><path class="cls-8" d="M248,264.9a2.21,2.21,0,0,1-4.43,0" transform="translate(-204.33 -123.51)"/><path class="cls-8" d="M548.62,246.29a2.21,2.21,0,1,1-4.43,0" transform="translate(-204.33 -123.51)"/><path class="cls-8" d="M511.91,141.92a2.21,2.21,0,1,1,4.43,0" transform="translate(-204.33 -123.51)"/><line class="cls-8" x1="23.85" y1="156.43" x2="23.85" y2="156.43"/><line class="cls-8" x1="46.17" y1="145.87" x2="46.17" y2="145.87"/><line class="cls-8" x1="43.68" y1="160.87" x2="43.68" y2="160.87"/><line class="cls-8" x1="42.04" y1="36.23" x2="42.04" y2="36.23"/><line class="cls-8" x1="78.67" y1="13.83" x2="78.67" y2="13.83"/><line class="cls-8" x1="60.79" y1="31.12" x2="60.79" y2="31.12"/><line class="cls-8" x1="58" y1="15.72" x2="58" y2="15.72"/><line class="cls-8" x1="39.54" y1="31.77" x2="39.54" y2="31.77"/><line class="cls-8" x1="60.07" y1="139.87" x2="60.07" y2="139.87"/><line class="cls-8" x1="323.23" y1="126.2" x2="323.23" y2="126.2"/><line class="cls-8" x1="344.29" y1="128.08" x2="344.29" y2="128.08"/><line class="cls-8" x1="354.44" y1="112.67" x2="354.44" y2="112.67"/><line class="cls-8" x1="359.23" y1="125" x2="359.23" y2="125"/><line class="cls-8" x1="378.67" y1="129.29" x2="378.67" y2="129.29"/><line class="cls-8" x1="339.93" y1="108.98" x2="339.93" y2="108.98"/><line class="cls-8" x1="324.33" y1="19.49" x2="324.33" y2="19.49"/><line class="cls-8" x1="373.5" y1="122.78" x2="373.5" y2="122.78"/><line class="cls-8" x1="352.57" y1="104.74" x2="352.57" y2="104.74"/><line class="cls-8" x1="327.05" y1="14.49" x2="327.05" y2="14.49"/></g></g><g id="background"><g id="colors-2" data-name="colors"><path class="cls-9" d="M546.41,322.17l18.84,84.51c0,.29,0,.58,0,.86a18.84,18.84,0,0,1-17.86,17.85l-.48,0h-.48a18.85,18.85,0,0,1-18.85-18.74Z" transform="translate(-204.33 -123.51)"/><polygon class="cls-9" points="342.08 181.02 342.08 198.66 336.26 198.66 336.26 183.18 336.24 183.11 342.08 181.02"/><path class="cls-9" d="M546.41,322.17l-18.85,84.51H455.38l18.84-84.51h72.19ZM526.2,358.42c1.68-13.81-7.84-25-21.25-25a27.21,27.21,0,0,0-16.19,5.63,30.1,30.1,0,0,0-11.84,19.37c-2.08,13.81,7.44,25,21.25,25a27.47,27.47,0,0,0,15.24-4.76A28.88,28.88,0,0,0,526.2,358.42Z" transform="translate(-204.33 -123.51)"/><path class="cls-9" d="M546.41,425.42H474.12a18.74,18.74,0,0,1-18.74-18.74h72.18a18.85,18.85,0,0,0,18.85,18.74Z" transform="translate(-204.33 -123.51)"/><polygon class="cls-9" points="336.26 183.18 336.26 198.66 330.23 198.66 330.23 181.09 336.05 183.18 336.24 183.11 336.26 183.18"/><polygon class="cls-9" points="330.23 181.09 330.23 198.66 323.87 198.66 323.87 183.18 323.89 183.13 324.02 183.18 330.03 181.02 330.23 181.09"/><polygon class="cls-9" points="323.89 183.13 323.87 183.18 323.87 198.66 317.85 198.66 317.85 181.07 318 181.02 323.89 183.13"/><path class="cls-10" d="M505,333.42c13.41,0,22.93,11.19,21.25,25a28.88,28.88,0,0,1-12.79,20.24,27.47,27.47,0,0,1-15.24,4.76c-13.81,0-23.33-11.19-21.25-25a30.1,30.1,0,0,1,11.84-19.37A27.21,27.21,0,0,1,505,333.42Zm9,37c2.58-2.17,3.75-5.26,3.15-7.72a4.76,4.76,0,0,0-1-1.93,4.2,4.2,0,0,0-.92-.82c-2.31-1.61-6.05-1.14-9,1.3-2.64,2.22-3.8,5.4-3.1,7.89a4.55,4.55,0,0,0,.92,1.77,4.71,4.71,0,0,0,2.13,1.43C508.52,373.16,511.55,372.49,514,370.44Zm-13.32-10.35c2.08-5.82.18-11.82-4.25-13.4a6.44,6.44,0,0,0-1.72-.36c-4-.31-8.24,3-10.06,8-2.08,5.83-.18,11.83,4.25,13.41a6.67,6.67,0,0,0,3.65.23C495.91,367.35,499.14,364.36,500.67,360.09Z" transform="translate(-204.33 -123.51)"/><polygon class="cls-9" points="317.85 181.07 317.85 198.66 312.01 198.66 312.01 183.18 312.01 183.17 317.85 181.07"/><path class="cls-9" d="M517.14,362.72c.6,2.46-.57,5.55-3.15,7.72s-5.47,2.72-7.75,1.92a13.8,13.8,0,0,0,3.59-6.63,8.06,8.06,0,0,1,5.42-5.76,4.2,4.2,0,0,1,.92.82A4.76,4.76,0,0,1,517.14,362.72Z" transform="translate(-204.33 -123.51)"/><polygon class="cls-9" points="312.01 183.18 312.01 198.66 305.98 198.66 305.98 181.02 311.99 183.18 312.01 183.17 312.01 183.18"/><path class="cls-9" d="M506.29,361.27c2.91-2.44,6.65-2.91,9-1.3a8.06,8.06,0,0,0-5.42,5.76,13.8,13.8,0,0,1-3.59,6.63,4.71,4.71,0,0,1-2.13-1.43,4.55,4.55,0,0,1-.92-1.77C502.49,366.67,503.65,363.49,506.29,361.27Z" transform="translate(-204.33 -123.51)"/><polygon class="cls-9" points="305.98 181.02 305.98 198.66 299.82 198.66 299.82 183.18 299.84 183.14 299.96 183.18 305.97 181.02 305.98 181.02"/><polygon class="cls-9" points="299.84 183.14 299.82 183.18 299.82 198.66 293.8 198.66 293.8 181.07 293.94 181.02 299.84 183.14"/><path class="cls-9" d="M496.42,346.69c4.43,1.58,6.33,7.58,4.25,13.4-1.53,4.27-4.76,7.26-8.13,7.92.77-2.55.89-6-.36-10.71a11.53,11.53,0,0,1,2.52-11A6.44,6.44,0,0,1,496.42,346.69Z" transform="translate(-204.33 -123.51)"/><polygon class="cls-9" points="293.8 181.07 293.8 198.66 287.96 198.66 287.96 183.18 287.96 183.17 293.8 181.07"/><path class="cls-9" d="M484.64,354.37c1.82-5.08,6.06-8.35,10.06-8a11.53,11.53,0,0,0-2.52,11c1.25,4.7,1.13,8.16.36,10.71a6.67,6.67,0,0,1-3.65-.23C484.46,366.2,482.56,360.2,484.64,354.37Z" transform="translate(-204.33 -123.51)"/><polygon class="cls-9" points="287.96 183.18 287.96 198.66 281.93 198.66 281.93 181.02 287.93 183.18 287.96 183.17 287.96 183.18"/><polygon class="cls-9" points="281.93 181.02 281.93 198.66 275.91 198.66 275.91 183.18 281.92 181.02 281.93 181.02"/><polygon class="cls-9" points="275.91 183.18 275.91 198.66 269.9 198.66 269.9 181.02 275.91 183.18"/><path class="cls-11" d="M303.07,376.14a14.15,14.15,0,0,1,0,28.29h-4.6a18.6,18.6,0,0,0,.37-3.68v-4.18h4.23a6.28,6.28,0,0,0,0-12.55h-4.23v-7.87Z" transform="translate(-204.33 -123.51)"/><path class="cls-11" d="M294.87,412h15.66a13.41,13.41,0,0,1-13.41,13.41h-51.9A13.41,13.41,0,0,1,231.81,412h63.06Z" transform="translate(-204.33 -123.51)"/><path class="cls-11" d="M298.84,396.56v4.18a18.6,18.6,0,0,1-.37,3.68,18,18,0,0,1-3.6,7.58h-47.4a17.89,17.89,0,0,1-4-11.26V370h55.34v26.56Z" transform="translate(-204.33 -123.51)"/></g><g id="shadows-2" data-name="shadows"><path class="cls-5" d="M540.6,348.22c-12.38,55.5-62.06,56.46-82.27,45.24l-2.95,13.22h72.18Z" transform="translate(-204.33 -123.51)"/><path class="cls-12" d="M546.41,322.17H474.23L472.34,327h.8l-8.34,37.4h0a7.09,7.09,0,0,0,6.92-5.57l5.57-25.36a8.24,8.24,0,0,1,8-6.47h59.18Z" transform="translate(-204.33 -123.51)"/><path class="cls-12" d="M508.93,406.68a16.45,16.45,0,0,1-3,5.82H455.38v-5.82Z" transform="translate(-204.33 -123.51)"/><path class="cls-12" d="M527.56,406.68v5.82H505.93a16.45,16.45,0,0,0,3-5.82Z" transform="translate(-204.33 -123.51)"/><path class="cls-6" d="M509.12,406l18.44.68H508.93C509,406.46,509.06,406.23,509.12,406Z" transform="translate(-204.33 -123.51)"/><path class="cls-5" d="M538.24,425.42H467.75L461,419.6h28a24.64,24.64,0,0,0,10.3-2.13,17.81,17.81,0,0,0,6.59-5h21.63v-5.82l1.34,6.89,4.25,6h.47Z" transform="translate(-204.33 -123.51)"/><polygon class="cls-12" points="275.91 187.29 281.75 185.29 287.75 187.29 294.1 185.29 300.14 187.29 305.98 185.29 312.01 187.29 318.15 185.29 324.14 187.29 330.03 185.29 336.05 187.29 342.08 185.29 342.5 187.29 342.31 182.5 281.93 181.81 271.33 183.58 275.91 187.29"/><path class="cls-5" d="M552.62,364.71c.09,10.12-13.53,17.62-13.53-16.49L527.56,406l1.72,10,5.79,6.61,8.7,2.75.64-.21a27.3,27.3,0,0,0,14.45-11.06h0a12.61,12.61,0,0,0,2-6.89h0a12.61,12.61,0,0,0-.25-2.48Z" transform="translate(-204.33 -123.51)"/><path class="cls-4" d="M298.47,370h-55v5.33h9.08V378a7.72,7.72,0,0,0,7.72,7.72h0A7.72,7.72,0,0,0,268,378v-2.7h30.44Z" transform="translate(-204.33 -123.51)"/><rect class="cls-6" x="94.5" y="252.62" width="4.23" height="7.88"/><rect class="cls-6" x="94.5" y="273.05" width="4.23" height="7.88"/><path class="cls-4" d="M231.81,412H294l-1.55,2.33c-1,.56-2,1.08-3,1.57H240.41c-.79-.49-1.55-1-2.3-1.57l-6.3,1.57Z" transform="translate(-204.33 -123.51)"/><polygon class="cls-4" points="105.61 288.49 105.61 292.39 104.22 292.39 105.61 288.49"/><path class="cls-4" d="M240.41,415.9h-8.6l6.3-1.57C238.86,414.88,239.62,415.41,240.41,415.9Z" transform="translate(-204.33 -123.51)"/><path class="cls-4" d="M309.95,412l-1.39,3.9H289.48c1-.49,2-1,3-1.57L294,412Z" transform="translate(-204.33 -123.51)"/><path class="cls-5" d="M289.48,415.9h19.08l-2,5.63-5.6,3.32L239.78,426l-5.83-6.7-2.14-3.37h8.6C253.89,424.46,272.54,424.38,289.48,415.9Z" transform="translate(-204.33 -123.51)"/><polygon class="cls-6" points="89.66 288.49 89.66 288.48 89.78 288.31 91.33 288.33 105.61 288.49 89.66 288.49"/><path class="cls-5" d="M298.47,391V375.33h-7.69v4.74a22.8,22.8,0,0,1-16.28,22,72.64,72.64,0,0,1-30.62,2.4l2.23,7.39,49.5.18,3-8.48.21-12.77Z" transform="translate(-204.33 -123.51)"/></g><g id="lines-2" data-name="lines"><path class="cls-13" d="M565.26,406.68a18.74,18.74,0,0,1-18.74,18.74h-72.4a18.74,18.74,0,0,1-18.74-18.74h72.19" transform="translate(-204.33 -123.51)"/><path class="cls-13" d="M527.56,406.68a18.86,18.86,0,0,0,18.85,18.74l1,0a18.85,18.85,0,0,0,17.85-17.85c0-.28,0-.57,0-.86l-18.85-84.51H474.22l-18.85,84.51" transform="translate(-204.33 -123.51)"/><line class="cls-13" x1="323.23" y1="283.17" x2="342.07" y2="198.66"/><polyline class="cls-13" points="342.07 181.02 342.07 198.66 269.89 198.66 269.89 181.02"/><polyline class="cls-13" points="269.89 181.02 275.9 183.19 281.92 181.02 287.93 183.19 293.94 181.02 299.95 183.19 305.97 181.02 311.98 183.19 318 181.02 324.02 183.19 330.03 181.02 336.05 183.19 342.07 181.02"/><line class="cls-14" x1="275.9" y1="183.19" x2="275.9" y2="198.66"/><line class="cls-14" x1="287.96" y1="183.19" x2="287.96" y2="198.66"/><line class="cls-14" x1="281.93" y1="181.02" x2="281.93" y2="198.66"/><line class="cls-14" x1="299.82" y1="183.19" x2="299.82" y2="198.66"/><line class="cls-14" x1="293.79" y1="181.02" x2="293.79" y2="198.66"/><line class="cls-14" x1="312.01" y1="183.19" x2="312.01" y2="198.66"/><line class="cls-14" x1="305.98" y1="181.02" x2="305.98" y2="198.66"/><line class="cls-14" x1="323.87" y1="183.19" x2="323.87" y2="198.66"/><line class="cls-14" x1="317.84" y1="181.02" x2="317.84" y2="198.66"/><line class="cls-14" x1="336.26" y1="183.19" x2="336.26" y2="198.66"/><line class="cls-14" x1="330.23" y1="181.02" x2="330.23" y2="198.66"/><path class="cls-13" d="M526.2,358.42c-1.68,13.81-14.23,25-28,25s-23.32-11.19-21.25-25,14.62-25,28-25S527.88,344.61,526.2,358.42Z" transform="translate(-204.33 -123.51)"/><path class="cls-13" d="M310.53,412H231.81a13.41,13.41,0,0,0,13.41,13.41h51.9A13.41,13.41,0,0,0,310.53,412Z" transform="translate(-204.33 -123.51)"/><path class="cls-13" d="M294.87,412a18,18,0,0,0,3.6-7.58,18.6,18.6,0,0,0,.37-3.68V370H243.5v30.74a17.9,17.9,0,0,0,4,11.26" transform="translate(-204.33 -123.51)"/><path class="cls-13" d="M298.84,376.14h4.23a14.15,14.15,0,0,1,0,28.29h-4.6" transform="translate(-204.33 -123.51)"/><path class="cls-13" d="M298.84,384h4.23a6.28,6.28,0,0,1,0,12.55h-4.23" transform="translate(-204.33 -123.51)"/><path class="cls-14" d="M494.71,346.32a11.52,11.52,0,0,0-2.53,11c1.25,4.7,1.13,8.16.36,10.71" transform="translate(-204.33 -123.51)"/><ellipse class="cls-14" cx="492.66" cy="357.23" rx="11.2" ry="8.51" transform="translate(-213.7 577.68) rotate(-70.36)"/><path class="cls-14" d="M515.26,360a8.1,8.1,0,0,0-5.43,5.77,13.8,13.8,0,0,1-3.58,6.64" transform="translate(-204.33 -123.51)"/><ellipse class="cls-14" cx="510.14" cy="365.86" rx="7.88" ry="5.99" transform="translate(-320.11 290.48) rotate(-40.04)"/><line class="cls-14" x1="297.18" y1="227.32" x2="310.93" y2="227.32"/><line class="cls-14" x1="304.05" y1="223.99" x2="315.18" y2="223.99"/><line class="cls-14" x1="280.51" y1="248.67" x2="293.85" y2="248.67"/><line class="cls-14" x1="295.44" y1="245.66" x2="298.86" y2="245.66"/><line class="cls-14" x1="312.8" y1="239.21" x2="316.35" y2="239.21"/><line class="cls-14" x1="284.43" y1="215.54" x2="293.85" y2="215.54"/><line class="cls-14" x1="297.15" y1="255.16" x2="309.08" y2="255.16"/><line class="cls-14" x1="291.35" y1="255.16" x2="293.18" y2="255.16"/><line class="cls-14" x1="297.18" y1="215.54" x2="298.86" y2="215.54"/><line class="cls-14" x1="272.58" y1="234.91" x2="275.68" y2="234.91"/><line class="cls-15" x1="262.17" y1="271.16" x2="291.42" y2="271.16"/><line class="cls-15" x1="296.31" y1="271.16" x2="301.07" y2="271.16"/><line class="cls-15" x1="304.97" y1="271.16" x2="315.51" y2="271.16"/><line class="cls-14" x1="342.07" y1="259.91" x2="342.07" y2="233.73"/><line class="cls-14" x1="342.07" y1="229.43" x2="342.07" y2="228.74"/><line class="cls-14" x1="342.07" y1="263.16" x2="342.07" y2="271.99"/><line class="cls-14" x1="342.07" y1="275.66" x2="342.07" y2="276.41"/><line class="cls-14" x1="342.07" y1="279.83" x2="342.07" y2="301.91"/><line class="cls-14" x1="323.23" y1="288.99" x2="293.77" y2="288.99"/><line class="cls-14" x1="290.35" y1="288.99" x2="289.39" y2="288.99"/><line class="cls-14" x1="303.11" y1="292.95" x2="311.92" y2="292.95"/><line class="cls-14" x1="39.16" y1="280.92" x2="50.61" y2="280.92"/><line class="cls-14" x1="53.05" y1="280.92" x2="53.2" y2="280.92"/><line class="cls-14" x1="56.26" y1="280.92" x2="59.61" y2="280.92"/><path class="cls-14" d="M300.84,419.27a16.35,16.35,0,0,1-7.31,6.14" transform="translate(-204.33 -123.51)"/><path class="cls-14" d="M294.11,421.53a17.88,17.88,0,0,1-5.58,3.88" transform="translate(-204.33 -123.51)"/><line class="cls-14" x1="89.26" y1="246.81" x2="89.26" y2="250.31"/><path class="cls-14" d="M265.71,341.75a13.13,13.13,0,0,1,0-26.26" transform="translate(-204.33 -123.51)"/><path class="cls-14" d="M264.4,334.8a6.18,6.18,0,0,1,0-12.36" transform="translate(-204.33 -123.51)"/><path class="cls-14" d="M265.37,362.82a3.93,3.93,0,0,1,0-7.86" transform="translate(-204.33 -123.51)"/><path class="cls-14" d="M273.32,295.9a9.25,9.25,0,1,1,0,18.5" transform="translate(-204.33 -123.51)"/><path class="cls-14" d="M268.94,341.71a6.45,6.45,0,0,1,0,12.9" transform="translate(-204.33 -123.51)"/><path class="cls-14" d="M279,343.77a10.27,10.27,0,0,1-.68,10" transform="translate(-204.33 -123.51)"/><path class="cls-14" d="M269.46,299.45a8.53,8.53,0,0,1,7.72,3.05" transform="translate(-204.33 -123.51)"/><path class="cls-14" d="M275.9,356.72a7.36,7.36,0,0,1-1.32.93" transform="translate(-204.33 -123.51)"/><path class="cls-14" d="M264.83,300.94a7.36,7.36,0,0,1,1.45-.7" transform="translate(-204.33 -123.51)"/></g></g><g id="main"><g id="colors-3" data-name="colors"><path class="cls-16" d="M494.74,248.7a9.6,9.6,0,0,1,2.67,10.87L472.36,322a9.65,9.65,0,0,1-6.91,5.81l-13,2.83L450,316.67l3.07-.47a6.37,6.37,0,0,0,9.86-2.48h0a6.38,6.38,0,0,0,.5-2.48c0-.16,0-.32,0-.47a1.09,1.09,0,0,0,0-.18c-.23-2.12-1.45-3.65-.24-6.67,1.72-4.3,4.92-3,6.64-7.33s-1.48-5.58.25-9.89,4.92-3,6.64-7.33-1.48-5.59.24-9.89a6.9,6.9,0,0,1,3.32-3.67,7,7,0,0,0,3.33-3.67,6.41,6.41,0,0,0,.3-4.22c-1.25-6.29-8.49-9.41-15.62-5-7.87,3.87-14.5,4.71-22.29,4.53l2.44-17.64c7.68.13,14.1,0,22.24-4.74a9.62,9.62,0,0,1,10.19,1.47Z" transform="translate(-204.33 -123.51)"/><path class="cls-17" d="M448.4,415.92v1.32c0,.29,0,.58,0,.87h-20l-6.52-68.21-.12-.07.11-.08,0,0-.86-9.29H433.7a4.88,4.88,0,0,1,4.83,4.21l.5,3.6,9.37,67.65Z" transform="translate(-204.33 -123.51)"/><path class="cls-17" d="M448.4,239.77,446,257.41,438.53,311a4.87,4.87,0,0,1-4.83,4.21H421l7.45-75.48Z" transform="translate(-204.33 -123.51)"/><polygon class="cls-17" points="244.07 116.26 224.07 116.26 195.67 116.26 195.67 116.24 167.27 116.24 147.32 116.24 190.65 100.24 200.69 100.24 244.07 116.26"/><path class="cls-17" d="M428.4,418.11h20a8.19,8.19,0,0,1-8.15,7.31H359.79a8.19,8.19,0,0,1-8.15-7.31H428.4Z" transform="translate(-204.33 -123.51)"/><polygon class="cls-17" points="230.17 191.74 230.17 207.91 226.5 207.91 164.84 207.91 161.17 207.91 161.17 191.74 195.67 191.74 216.62 191.74 220.34 191.74 224.07 191.74 229.37 191.74 230.17 191.74"/><polygon class="cls-17" points="226.5 212.41 226.5 216.91 216.71 216.91 216.65 216.32 215.45 216.91 195.67 216.91 174.72 216.91 164.84 216.91 164.84 207.91 226.5 207.91 226.5 212.41"/><polygon class="cls-17" points="224.07 116.26 216.62 191.74 195.67 191.74 195.67 191.73 195.67 191.72 195.67 153.19 195.67 116.26 224.07 116.26"/><path class="cls-17" d="M421.88,349.9l6.52,68.21H400V340.44h21l.86,9.29,0,0-.11.08Z" transform="translate(-204.33 -123.51)"/><polygon class="cls-17" points="216.71 216.91 216.71 216.93 215.41 216.93 215.45 216.91 216.71 216.91"/><polygon class="cls-17" points="216.65 216.32 216.71 216.91 215.45 216.91 216.65 216.32"/><polygon class="cls-16" points="202.48 86.62 202.21 88.71 189.13 88.71 188.86 86.62 195.67 82.49 202.48 86.62"/><polygon class="cls-16" points="202.21 88.71 200.69 100.24 190.65 100.24 189.13 88.71 202.21 88.71"/><path class="cls-17" d="M400,418.1H371.6L375,381.63l.12-1.23,3-30.49.13-.08-.11-.08.92-9.33H400V418.1Z" transform="translate(-204.33 -123.51)"/><polygon class="cls-17" points="195.67 191.72 195.67 191.73 174.72 191.73 167.27 116.24 195.67 116.24 195.67 116.26 195.67 153.19 195.67 191.72"/><path class="cls-17" d="M371.6,239.75l7.45,75.49H366.3a4.87,4.87,0,0,1-4.83-4.21L359,292.83l-.28-2v-51H351.6l0,0Z" transform="translate(-204.33 -123.51)"/><path class="cls-17" d="M379.05,340.42l-.92,9.33,0,.16-3,30.49-.12,1.23L371.6,418.1h-20c0-.29,0-.58,0-.87V415.9l5.13-37L361,348.25l.5-3.62a4.88,4.88,0,0,1,4.83-4.21h12.75Z" transform="translate(-204.33 -123.51)"/><path class="cls-17" d="M378.24,349.83l-.13.08A.26.26,0,0,1,378.24,349.83Z" transform="translate(-204.33 -123.51)"/><path class="cls-17" d="M378.13,349.75l.11.08a.26.26,0,0,0-.13.08Z" transform="translate(-204.33 -123.51)"/><path class="cls-17" d="M358.67,290.8v.2L339,254.31c-2-3.55-6.86-4.9-10.11-4.9v-.72a8.92,8.92,0,0,1,8.92-8.92h20.87Z" transform="translate(-204.33 -123.51)"/><polygon class="cls-17" points="147.32 116.24 147.27 116.26 147.27 116.24 147.32 116.24"/></g><g id="shadows-3" data-name="shadows"><path class="cls-18" d="M438.21,340.83l-8.7.68-2.18-.44-63.83,0-1.84,4.36-.78.1-8.24,59.73.33.24.53-4a12.54,12.54,0,0,0,3.29,6.56l8-59.52a3.39,3.39,0,0,1,3.3-3h0a17.83,17.83,0,0,1,9.85,2.93l-5.81,62.67h0l.15-1.62.16-1.65a22,22,0,0,0,3.47,1.42l1.55-17.46a4,4,0,0,0,3.5,0,5.88,5.88,0,0,0,3.26-4.76l3.6-35.38a6,6,0,0,1,7.67-5.22,7.72,7.72,0,0,1,3.85,2.3l.16,17a4.4,4.4,0,0,0,4.49,4.31h.58a4.4,4.4,0,0,0,4.31-4.49l-.08-12.92a6.32,6.32,0,0,1,7.61-6.36l.33.08a19.53,19.53,0,0,1,4.9,2.27l.11-.08a17.83,17.83,0,0,1,8.16-2.9,15.44,15.44,0,0,1,1.81-.1,17.66,17.66,0,0,1,6.37,1.17Z" transform="translate(-204.33 -123.51)"/><polygon class="cls-19" points="62.67 301.91 27.56 301.91 62.6 301.9 62.67 301.91"/><path class="cls-18" d="M358.67,244.33l.28,0-.28-4.6-14.89,0-.12,0h-6.61v1.14l-4.84.83-3.33,7.67,3.62.3,0-.06a9.09,9.09,0,0,1,7.83-4.28h18.3Z" transform="translate(-204.33 -123.51)"/><polygon class="cls-20" points="188.17 88.12 195.67 88.71 195.67 83.37 188.17 88.12"/><path class="cls-12" d="M482.87,270c-1,.61-1.06.66-1.31,1.28s-.22.7.07,1.8A12.09,12.09,0,0,1,476,287.29c-1,.6-1,.64-1.3,1.26s-.22.71.07,1.82a12.1,12.1,0,0,1-5.66,14.14c-1,.59-1.05.64-1.3,1.26s-.22.7.07,1.79a16.89,16.89,0,0,1,.49,2.41,6,6,0,0,1,.05.62c0,.16,0,.4,0,.64a11.4,11.4,0,0,1-.5,3.34v.09l-.16.45-.24.56A11.33,11.33,0,0,1,457,322.61a11.47,11.47,0,0,1-4.19-.79l-2.11-.78-.75-2.87.75-1.5,2.42.78,3.16.8,4.84-.8,2.66-4.1-1.5-6.14,1.84-4.88,5.58-5.08v-10l6.75-6.54.42-12,7.83-9.33-.23-.35-.77-5.9C490.44,263.17,484.4,269.1,482.87,270Z" transform="translate(-204.33 -123.51)"/><line class="cls-21" x1="233.88" y1="223.24" x2="233.37" y2="219.66"/><path class="cls-22" d="M371.6,239.75c16.27-.36,56.27-5.56,33.42-16l41.86,16Z" transform="translate(-204.33 -123.51)"/><path class="cls-20" d="M370.36,331.09v-5.27a4.5,4.5,0,0,1,9,0v5.27Z" transform="translate(-204.33 -123.51)"/><rect class="cls-20" x="381.19" y="326.19" width="7.98" height="5.1" rx="2.55" ry="2.55" transform="translate(-147.9 590.41) rotate(-90)"/><path class="cls-23" d="M377.5,315.25h-12v5.08h35.3a5.48,5.48,0,0,1,5.48,5.48v5.36H416v-4.64a6.2,6.2,0,0,1,6.2-6.2h0a6.2,6.2,0,0,1,6.2,6.2v4.64h5.92V320.33h.4v-5.08Z" transform="translate(-204.33 -123.51)"/><path class="cls-23" d="M430.83,331.42H369.39V336h27.36a2,2,0,0,1,2,2v2.13h9.72V338a2,2,0,0,1,2-2h12a2.07,2.07,0,0,1,2.07,2.07v1.81h5.92V336h.24Z" transform="translate(-204.33 -123.51)"/><rect class="cls-24" x="378.35" y="248.83" width="3.46" height="23.23" rx="1.73" ry="1.73" transform="translate(583.06 352.32) rotate(173.45)"/><path class="cls-19" d="M361.89,309.62l.6,3.57-.19,0-.58-1.71-.75-2.19.43.17A4.18,4.18,0,0,0,361.89,309.62Z" transform="translate(-204.33 -123.51)"/><path class="cls-18" d="M365.23,310.51a20.06,20.06,0,0,1-3.44-.86l-3.63-22.07.7-26.81Z" transform="translate(-204.33 -123.51)"/><polygon class="cls-19" points="161.57 192.23 158.36 190.87 158.28 190.39 158.16 189.68 161.33 190.32 161.36 190.6 161.57 192.23"/><polygon class="cls-25" points="154.62 133.87 154.53 137.26 154.19 134.58 154.62 133.87"/><line class="cls-21" x1="233.37" y1="219.66" x2="225.18" y2="218"/><path class="cls-19" d="M378.19,307.21l.77,1.1,3.23,1.31c-.15-1.59-.26-1.77-.49-3.95l-5.85-59.83H372.2Z" transform="translate(-204.33 -123.51)"/><path class="cls-19" d="M389,245.84H375.85l2,20.53C385.8,265.39,391.25,260.57,389,245.84Z" transform="translate(-204.33 -123.51)"/><rect class="cls-24" x="380.1" y="274.45" width="4.14" height="4.14" rx="2.07" ry="2.07" transform="translate(-98.68 535.19) rotate(-90)"/><rect class="cls-18" x="365.76" y="348.84" width="3.46" height="8.71" rx="1.73" ry="1.73" transform="translate(475.89 632.17) rotate(-171.71)"/><rect class="cls-18" x="403.48" y="249.71" width="3.09" height="3.09" rx="1.54" ry="1.54" transform="translate(-50.57 532.77) rotate(-90)"/><g class="cls-26"><rect class="cls-25" x="416.4" y="326.86" width="7.98" height="3.76" rx="1.88" ry="1.88" transform="translate(-112.68 625.62) rotate(-90)"/><rect class="cls-25" x="410.07" y="337.5" width="3.95" height="3.21" rx="1.49" ry="1.49" transform="translate(-131.39 627.64) rotate(-90)"/><rect class="cls-25" x="370.28" y="326.04" width="6.96" height="3.13" rx="1.56" ry="1.56" transform="translate(-158.18 577.86) rotate(-90)"/><rect class="cls-25" x="374.53" y="334.74" width="3.09" height="7.7" rx="1.54" ry="1.54" transform="translate(-166.86 591.15) rotate(-90)"/></g><rect class="cls-27" x="379.3" y="371.48" width="4.08" height="10.23" rx="2.04" ry="2.04" transform="translate(523.09 662.31) rotate(-174.86)"/><rect class="cls-27" x="378.4" y="384.17" width="4.14" height="4.14" rx="2.07" ry="2.07" transform="translate(-210.1 643.2) rotate(-90)"/><path class="cls-23" d="M479,306.06c-.44,10.7-12.16,21-26.92,19.31l.29,6,16.21-3.25,3.88-4Z" transform="translate(-204.33 -123.51)"/><g class="cls-23"><path d="M372.51,408.43l-.91,9.67-17.29,0-3.12,0,.58-3.42,1.2-9.16,3.79,2.79,0-.25C362.19,413.41,371.57,410.25,372.51,408.43Z" transform="translate(-204.33 -123.51)"/><path d="M400.11,404.25,400,418.12l-28.4,0,.65-6.91,3.55.73.23-2.58C385.36,412.32,396,409.2,400.11,404.25Z" transform="translate(-204.33 -123.51)"/><path d="M448.4,418.11l-20,0-2.51-23.42H426a8.37,8.37,0,0,0,8.93-9.43L430,345.68a15.44,15.44,0,0,1,1.81-.1,17.66,17.66,0,0,1,6.37,1.17l4.65,32.55c.26-.92.51-1.86.75-2.8Z" transform="translate(-204.33 -123.51)"/><path d="M428.4,418.09l-28.4,0,.11-13.87c2.39,1.65,6.43,2.41,10.62,2a11.25,11.25,0,0,0,10.17-12.17l-4-47.73a19.53,19.53,0,0,1,4.9,2.27l.11-.08,5,55.44Z" transform="translate(-204.33 -123.51)"/><path d="M444.46,268.24l-.55,4.46A23.5,23.5,0,0,0,444.46,268.24Z" transform="translate(-204.33 -123.51)"/><path d="M448.4,240.67h-5.23v-.9h-84.5v6.07h54.77a9.15,9.15,0,0,1,9.1,10l-4,43.36a11.07,11.07,0,0,1-10.88,10,16,16,0,0,1-6.13-1.1c-.51-.29-1-.6-1.49-.94l-.15.09-.28-.17,0,.34a19.53,19.53,0,0,1-21.35.2l-.11.08a17.91,17.91,0,0,1-10,3,17.65,17.65,0,0,1-2.93-.24,17.47,17.47,0,0,1-4.26-1.26l1.33,3.9,3.36.68,7,1.42H400l0,.45h21l13.74-.45h1.78l.77-1.82,1.76-1.27,4.88-39.44a25.93,25.93,0,0,1-1.27,4.1Zm-21.07,10,.29-4.83h2.2a7.35,7.35,0,0,1,7.28,8.39l-4.18,29.32a7.17,7.17,0,0,1-9.39,5.78Z" transform="translate(-204.33 -123.51)"/><path d="M376,409.34l-.23,2.58-3.55-.73.15-1.62.16-1.65A22,22,0,0,0,376,409.34Z" transform="translate(-204.33 -123.51)"/><path d="M356.79,408.06l0,.25L353,405.52l.53-4A12.54,12.54,0,0,0,356.79,408.06Z" transform="translate(-204.33 -123.51)"/><path d="M342.51,260.87l-.17-.3C342.39,260.67,342.45,260.77,342.51,260.87Z" transform="translate(-204.33 -123.51)"/><path d="M346.71,268.71c5.54,7.54,10.29-10.34,10.29-20.59,0,18.82,1.1,36.88,1.1,36.88Z" transform="translate(-204.33 -123.51)"/></g><path class="cls-18" d="M409.08,245.87H404v0h-4v57a3.89,3.89,0,0,0,3.89-3.88l.09-43.42C408.17,255.53,409.85,251.72,409.08,245.87Z" transform="translate(-204.33 -123.51)"/><path class="cls-28" d="M147.77,294.6H244a0,0,0,0,1,0,0v0a7.31,7.31,0,0,1-7.31,7.31H155.08a7.31,7.31,0,0,1-7.31-7.31v0A0,0,0,0,1,147.77,294.6Z"/><path class="cls-19" d="M369.88,234.75h13.4a14,14,0,0,0,8.84-3.13l8-6.5h-6.68Z" transform="translate(-204.33 -123.51)"/><path class="cls-29" d="M395.58,217.71c.91,2.88,8.26,1.21,9-4.71,1,9.17.79,9.67.79,9.67l-11.74,1.57Z" transform="translate(-204.33 -123.51)"/><polygon class="cls-20" points="192.1 97.24 192.67 90.56 201.08 90.09 201.08 88.06 190.23 88.28 192.1 97.24"/><polygon class="cls-30" points="174.91 217.56 195.67 217.56 195.67 294.59 167.27 294.59 174.91 217.56"/><polygon class="cls-30" points="188.17 116.26 195.81 115.64 195.67 190.32 195.67 192.19 174.65 192.19 174.65 190.95 167.27 116.24 183.4 115.65 188.17 116.26"/><polygon class="cls-31" points="194.46 207.82 194.46 216.62 195.67 216.62 195.67 217.56 174.91 217.56 175.03 216.32 176.67 216.32 176.67 207.58 174.65 207.58 174.65 192.19 195.67 192.19 195.67 207.82 194.46 207.82"/><path class="cls-12" d="M448.4,243.66c10.6,2.46,20.53-2.12,23.63-3.89a9,9,0,0,1,11.22,1.48c-3.75-7.37-5.6-8-14.83-5s-21.54,2.4-21.54,2.4l.5,3.38Z" transform="translate(-204.33 -123.51)"/><path class="cls-23" d="M446.88,252.8c10.13,2,23.28-6.5,28.79-3.09-8.17,2.16-19,10.79-28.79,7.65Z" transform="translate(-204.33 -123.51)"/></g><g id="blur"><circle class="cls-32" cx="175.74" cy="136.94" r="70"/><circle class="cls-33" cx="175.74" cy="236.94" r="35"/></g><g id="lines-3" data-name="lines"><line class="cls-34" x1="17.5" y1="301.91" x2="381.75" y2="301.91"/><line class="cls-35" x1="10" y1="301.91" x2="2" y2="301.91"/><line class="cls-35" x1="389.33" y1="301.91" x2="389.33" y2="301.91"/><rect class="cls-35" x="161.17" y="191.75" width="69" height="16.17"/><rect class="cls-35" x="164.83" y="207.91" width="61.67" height="9"/><path class="cls-35" d="M400,315.25h33.7a4.88,4.88,0,0,0,4.83-4.21l9.87-71.27H400v0H351.6v0" transform="translate(-204.33 -123.51)"/><path class="cls-35" d="M358.1,286.67l.85,6.16,2.52,18.2a4.88,4.88,0,0,0,4.83,4.21H400" transform="translate(-204.33 -123.51)"/><line class="cls-36" x1="174.72" y1="191.73" x2="167.27" y2="116.25"/><path class="cls-35" d="M448.4,415.92l-9.87-71.27a4.88,4.88,0,0,0-4.83-4.21H400" transform="translate(-204.33 -123.51)"/><path class="cls-35" d="M400,418.1" transform="translate(-204.33 -123.51)"/><path class="cls-35" d="M400,340.42H366.3a4.88,4.88,0,0,0-4.83,4.21l-.5,3.62-4.24,30.64-5.13,37" transform="translate(-204.33 -123.51)"/><line class="cls-36" x1="224.06" y1="294.61" x2="216.64" y2="216.91"/><polyline class="cls-36" points="167.27 294.6 171.57 248.79 171.69 247.56 174.7 217.07 174.72 216.91"/><path class="cls-35" d="M448.4,415.9v1.33a8.18,8.18,0,0,1-8.18,8.18H359.79a8.18,8.18,0,0,1-8.18-8.18V415.9" transform="translate(-204.33 -123.51)"/><line class="cls-35" x1="244.07" y1="116.26" x2="200.69" y2="100.24"/><line class="cls-35" x1="190.65" y1="100.24" x2="147.27" y2="116.26"/><polygon class="cls-35" points="202.48 86.62 195.67 82.49 188.86 86.62 190.64 100.24 200.69 100.24 202.48 86.62"/><path class="cls-35" d="M358.67,291,339,254.31c-2-3.55-6.85-4.9-10.1-4.9v-.72a8.92,8.92,0,0,1,8.92-8.92h21.85" transform="translate(-204.33 -123.51)"/><path class="cls-35" d="M359,292.83" transform="translate(-204.33 -123.51)"/><line class="cls-35" x1="154.33" y1="167.49" x2="154.33" y2="116.26"/><path class="cls-35" d="M448.4,239.77c7.68.13,14.1,0,22.24-4.74a9.62,9.62,0,0,1,10.19,1.47l13.91,12.2a9.6,9.6,0,0,1,2.67,10.87L472.36,322a9.65,9.65,0,0,1-6.91,5.81l-13,2.83-2.42-14,3.07-.47a6.37,6.37,0,0,0,9.86-2.48h0" transform="translate(-204.33 -123.51)"/><path class="cls-35" d="M446,257.41c7.79.18,14.42-.66,22.29-4.53,7.13-4.38,14.37-1.26,15.62,5a6.41,6.41,0,0,1-.3,4.22,7,7,0,0,1-3.33,3.67,6.9,6.9,0,0,0-3.32,3.67c-1.72,4.3,1.48,5.58-.24,9.89s-4.92,3-6.64,7.33,1.47,5.59-.25,9.89-4.92,3-6.64,7.33c-1.21,3,0,4.55.24,6.67" transform="translate(-204.33 -123.51)"/><path class="cls-35" d="M463.4,310.76a1.09,1.09,0,0,0,0-.18,1.09,1.09,0,0,1,0,.18c0,.15,0,.31,0,.47a6.38,6.38,0,0,1-.5,2.48h0" transform="translate(-204.33 -123.51)"/><polyline class="cls-36" points="195.67 216.93 195.67 258.9 195.67 294.59 195.67 294.61"/><polyline class="cls-36" points="195.67 116.24 195.67 153.19 195.67 191.72 195.67 191.74"/><line class="cls-36" x1="147.27" y1="294.6" x2="244.06" y2="294.6"/><line class="cls-36" x1="188.86" y1="88.71" x2="202.48" y2="88.71"/><line class="cls-36" x1="224.06" y1="191.75" x2="224.06" y2="198.66"/><line class="cls-36" x1="220.34" y1="196.16" x2="220.34" y2="191.73"/><line class="cls-36" x1="226.5" y1="212.41" x2="216.62" y2="212.41"/><line class="cls-36" x1="196.92" y1="212.41" x2="196.92" y2="212.41"/><line class="cls-36" x1="202.04" y1="212.41" x2="200.5" y2="212.41"/><line class="cls-36" x1="224.06" y1="116.26" x2="216.62" y2="191.75"/></g></g></svg>